<svg xmlns="http://www.w3.org/2000/svg" xmlns:xlink="http://www.w3.org/1999/xlink" version="1.1" width="256" height="256" viewBox="0 0 256 256" xml:space="preserve">

<defs>
</defs>
<g style="stroke: none; stroke-width: 0; stroke-dasharray: none; stroke-linecap: butt; stroke-linejoin: miter; stroke-miterlimit: 10; fill: none; fill-rule: nonzero; opacity: 1;" transform="translate(1.4065934065934016 1.4065934065934016) scale(2.81 2.81)" >
	<path d="M 47.755 3.765 l 11.525 23.353 c 0.448 0.907 1.313 1.535 2.314 1.681 l 25.772 3.745 c 2.52 0.366 3.527 3.463 1.703 5.241 L 70.42 55.962 c -0.724 0.706 -1.055 1.723 -0.884 2.72 l 4.402 25.667 c 0.431 2.51 -2.204 4.424 -4.458 3.239 L 46.43 75.47 c -0.895 -0.471 -1.965 -0.471 -2.86 0 L 20.519 87.588 c -2.254 1.185 -4.889 -0.729 -4.458 -3.239 l 4.402 -25.667 c 0.171 -0.997 -0.16 -2.014 -0.884 -2.72 L 0.931 37.784 c -1.824 -1.778 -0.817 -4.875 1.703 -5.241 l 25.772 -3.745 c 1.001 -0.145 1.866 -0.774 2.314 -1.681 L 42.245 3.765 C 43.372 1.481 46.628 1.481 47.755 3.765 z" style="stroke: none; stroke-width: 1; stroke-dasharray: none; stroke-linecap: butt; stroke-linejoin: miter; stroke-miterlimit: 10; fill: #888; fill-rule: nonzero; opacity: 1;" transform=" matrix(1 0 0 1 0 0) " stroke-linecap="round" />
</g>
</svg>