<?xml version="1.0" ?>

<!-- Uploaded to: SVG Repo, www.svgrepo.com, Generator: SVG Repo Mixer Tools -->
<svg width="800px" height="800px" viewBox="0 0 400 400" xmlns="http://www.w3.org/2000/svg">

<defs>

<style>.cls-1{fill:#888;}</style>

</defs>

<title/>

<g id="xxx-file">

<path class="cls-1" d="M325,105H250a5,5,0,0,1-5-5V25a5,5,0,0,1,10,0V95h70a5,5,0,0,1,0,10Z"/>

<path class="cls-1" d="M300,380H100a30,30,0,0,1-30-30V50a30,30,0,0,1,30-30H250a5,5,0,0,1,3.54,1.46l75,75A5,5,0,0,1,330,100V350A30,30,0,0,1,300,380ZM100,30A20,20,0,0,0,80,50V350a20,20,0,0,0,20,20H300a20,20,0,0,0,20-20V102.07L247.93,30Z"/>

<path class="cls-1" d="M275,180H125a5,5,0,0,1,0-10H275a5,5,0,0,1,0,10Z"/>

<path class="cls-1" d="M275,230H125a5,5,0,0,1,0-10H275a5,5,0,0,1,0,10Z"/>

<path class="cls-1" d="M275,280H125a5,5,0,0,1,0-10H275a5,5,0,0,1,0,10Z"/>

<path class="cls-1" d="M200,330H125a5,5,0,0,1,0-10h75a5,5,0,0,1,0,10Z"/>

</g>

</svg>