<!DOCTYPE svg PUBLIC "-//W3C//DTD SVG 1.1//EN" "http://www.w3.org/Graphics/SVG/1.1/DTD/svg11.dtd">
<!-- Uploaded to: SVG Repo, www.svgrepo.com, Transformed by: SVG Repo Mixer Tools -->
<svg fill="#888" height="800px" width="800px" version="1.1" id="Layer_1" xmlns="http://www.w3.org/2000/svg" xmlns:xlink="http://www.w3.org/1999/xlink" viewBox="0 0 512 512" xml:space="preserve" stroke="#888">
<g id="SVGRepo_bgCarrier" stroke-width="0"/>
<g id="SVGRepo_tracerCarrier" stroke-linecap="round" stroke-linejoin="round"/>
<g id="SVGRepo_iconCarrier"> <g> <g> <path d="M471.149,405.797V178.111c0-13.515-10.996-24.511-24.511-24.511s-24.511,10.996-24.511,24.511v232.045 c-8.779,5.403-15.807,13.11-20.382,22.321H279.421v-80.068c0-13.515-10.996-24.511-24.511-24.511 c-13.515,0-24.511,10.996-24.511,24.511v80.068H109.167c-5.521-11.12-14.59-19.993-25.831-25.266V285.413h62.638 c13.515,0,24.511-10.996,24.511-24.511c0-13.515-10.996-24.511-24.511-24.511H83.336V122.221 c10.826-5.092,19.69-13.579,25.262-24.178h211.674c13.515,0,24.511-10.996,24.511-24.511c0-13.515-10.996-24.511-24.511-24.511 H109.684c-8.988-19.113-28.302-31.591-49.77-31.591c-30.334,0-55.013,24.678-55.013,55.013c0,20.698,11.378,39.244,29.413,48.688 v287.168c-18.034,9.444-29.413,27.991-29.413,48.688C4.902,487.322,29.58,512,59.915,512c20.916,0,40.031-12.049,49.245-30.502 h292.592C410.965,499.951,430.08,512,450.995,512c30.334,0,55.013-24.678,55.013-55.013 C506.008,434.191,491.955,413.976,471.149,405.797z M114.467,65.362h205.805c4.506,0,8.17,3.665,8.17,8.17s-3.665,8.17-8.17,8.17 H114.131c0.52-3.045,0.796-6.135,0.796-9.26C114.927,70.067,114.771,67.704,114.467,65.362z M145.974,252.732 c4.506,0,8.17,3.665,8.17,8.17c0,4.506-3.665,8.17-8.17,8.17H75.166c-4.513,0-8.17,3.657-8.17,8.17v125.193 c-2.342-0.304-4.705-0.461-7.081-0.461c-3.124,0-6.215,0.277-9.26,0.796V126.659c3.045,0.52,6.135,0.796,9.26,0.796 c2.376,0,4.739-0.157,7.081-0.461v117.567c0,4.513,3.657,8.17,8.17,8.17H145.974z M21.242,72.443 c0-21.324,17.348-38.672,38.672-38.672c16.499,0,31.193,10.481,36.564,26.08c1.399,4.063,2.108,8.3,2.108,12.592 c0,4.954-0.934,9.794-2.777,14.388v0.002c-4.19,10.435-12.683,18.518-23.304,22.174c-4.063,1.399-8.3,2.108-12.592,2.108 c-4.954,0-9.794-0.934-14.388-2.777c-0.002-0.001-0.003-0.001-0.005-0.002C30.772,102.413,21.242,88.327,21.242,72.443z M96.166,470.477c0,0.001-0.001,0.003-0.001,0.004c-5.609,15.059-20.176,25.178-36.251,25.178 c-21.324,0-38.672-17.348-38.672-38.672c0-15.884,9.53-29.971,24.279-35.893c0.002-0.001,0.004-0.001,0.005-0.002 c4.594-1.843,9.434-2.777,14.388-2.777c4.292,0,8.529,0.709,12.592,2.108c10.984,3.782,19.607,12.192,23.66,23.075 c1.607,4.315,2.422,8.853,2.422,13.49S97.773,466.162,96.166,470.477z M396.599,465.157H114.311 c0.402-2.692,0.617-5.419,0.617-8.17s-0.215-5.478-0.617-8.17H238.57c4.513,0,8.17-3.657,8.17-8.17v-88.238 c0-4.506,3.665-8.17,8.17-8.17c4.506,0,8.17,3.665,8.17,8.17v88.238c0,4.513,3.657,8.17,8.17,8.17h125.348 c-0.402,2.692-0.617,5.419-0.617,8.17S396.197,462.466,396.599,465.157z M438.468,178.111c0-4.506,3.665-8.17,8.17-8.17 c4.506,0,8.17,3.665,8.17,8.17v224.003c-1.268-0.088-2.539-0.139-3.813-0.139c-4.27,0-8.456,0.479-12.528,1.43V178.111z M450.995,495.66c-16.075,0-30.642-10.119-36.25-25.178c0-0.001-0.001-0.003-0.001-0.004c-1.607-4.315-2.422-8.853-2.422-13.49 s0.815-9.175,2.422-13.49c3.455-9.281,10.263-16.813,19.169-21.208c5.344-2.637,11.092-3.975,17.081-3.975 c3.342,0,6.673,0.432,9.898,1.283c16.943,4.471,28.774,19.846,28.774,37.389C489.668,478.312,472.32,495.66,450.995,495.66z"/> </g> </g> <g> <g> <path d="M504.705,45.529L461.569,2.392C460.036,0.861,457.958,0,455.79,0c-2.167,0-4.245,0.862-5.778,2.394L253.664,198.84 l-43.19,43.19c-0.041,0.041-0.077,0.088-0.118,0.131c-0.125,0.131-0.247,0.264-0.364,0.403c-0.04,0.048-0.082,0.096-0.121,0.144 c-0.033,0.04-0.061,0.083-0.093,0.124c-0.09,0.118-0.179,0.236-0.263,0.359c-0.058,0.084-0.114,0.169-0.168,0.255 c-0.028,0.046-0.057,0.09-0.084,0.136c-0.053,0.089-0.106,0.18-0.157,0.272c-0.07,0.125-0.134,0.254-0.197,0.382 c-0.024,0.049-0.051,0.097-0.074,0.146c-0.027,0.059-0.052,0.119-0.077,0.179c-0.069,0.159-0.131,0.32-0.188,0.484 c-0.022,0.061-0.049,0.118-0.07,0.179l-10.784,32.353l-10.125,30.374l-12.097,12.097c-3.191,3.192-3.191,8.364,0,11.555 c1.596,1.595,3.687,2.392,5.778,2.392c2.09,0,4.182-0.797,5.778-2.392l11.9-11.9l63.022-21.007 c0.065-0.022,0.125-0.05,0.188-0.074c0.157-0.057,0.314-0.115,0.467-0.183c0.062-0.026,0.124-0.051,0.184-0.08 c0.051-0.024,0.1-0.052,0.151-0.076c0.126-0.061,0.251-0.124,0.375-0.193c0.091-0.051,0.183-0.102,0.272-0.157 c0.048-0.028,0.095-0.058,0.142-0.088c0.085-0.054,0.17-0.11,0.254-0.168c0.12-0.083,0.236-0.168,0.351-0.256 c0.044-0.034,0.089-0.064,0.132-0.099c0.05-0.04,0.099-0.083,0.148-0.125c0.132-0.11,0.257-0.225,0.38-0.343 c0.048-0.046,0.099-0.086,0.147-0.133l107.841-107.841c0.146-0.146,0.284-0.295,0.416-0.449L504.706,57.081 C507.896,53.891,507.895,48.718,504.705,45.529z M207.603,299.594l5.617-16.849l6.604-19.811l24.44,24.44L207.603,299.594z M361.435,177.312c-0.145,0.145-0.282,0.293-0.414,0.446L259.388,279.39l-31.581-31.582l37.413-37.414L455.792,19.726 l31.582,31.581L361.435,177.312z"/> </g> </g> </g>
</svg>