<?xml version="1.0" encoding="iso-8859-1"?>
<!-- Uploaded to: SVG Repo, www.svgrepo.com, Generator: SVG Repo Mixer Tools -->
<svg height="800px" width="800px" version="1.1" id="Capa_1" xmlns="http://www.w3.org/2000/svg" xmlns:xlink="http://www.w3.org/1999/xlink" 
	 viewBox="0 0 341.981 341.981" xml:space="preserve">
<g>
	<g>
		<path style="fill:#888;" d="M170.991,260.395c40.113,0,72.747-32.634,72.747-72.747v-114.9C243.738,32.634,211.104,0,170.991,0
			S98.243,32.634,98.243,72.747v114.9C98.243,227.761,130.877,260.395,170.991,260.395z M119.999,72.747
			c0-28.109,22.877-50.991,50.991-50.991s50.991,22.882,50.991,50.991v114.9c0,28.12-22.877,50.991-50.991,50.991
			s-50.991-22.871-50.991-50.991V72.747z"/>
		<path style="fill:#888;" d="M189.766,297.109c48.506,0,87.966-39.455,87.966-87.961c0-6.01-4.873-10.878-10.878-10.878
			s-10.878,4.868-10.878,10.878c0,36.502-29.703,66.204-66.21,66.204h-37.551c-36.507,0-66.21-29.703-66.21-66.204
			c0-6.01-4.873-10.878-10.878-10.878c-6.005,0-10.878,4.868-10.878,10.878c0,48.506,39.46,87.961,87.966,87.961h7.898v23.116
			h-50.991c-6.005,0-10.878,4.873-10.878,10.878c0,6.01,4.873,10.878,10.878,10.878H232.86c6.005,0,10.878-4.868,10.878-10.878
			c0-6.005-4.873-10.878-10.878-10.878h-50.991v-23.116H189.766z"/>
	</g>
</g>
</svg>