<?xml version="1.0" encoding="iso-8859-1"?>
<!-- Generator: Adobe Illustrator 16.0.0, SVG Export Plug-In . SVG Version: 6.00 Build 0)  -->
<!DOCTYPE svg PUBLIC "-//W3C//DTD SVG 1.1//EN" "http://www.w3.org/Graphics/SVG/1.1/DTD/svg11.dtd">
<svg version="1.1" id="Capa_1" xmlns="http://www.w3.org/2000/svg" xmlns:xlink="http://www.w3.org/1999/xlink" x="0px" y="0px"
	 width="124.524px" height="124.524px" viewBox="0 0 124.524 124.524" style="enable-background:new 0 0 124.524 124.524;"
	 xml:space="preserve">
<g>
	<path d="M51,102.05c10.5,0,20.2-3.2,28.3-8.6l29.3,29.3c2.301,2.3,6.101,2.3,8.5,0l5.7-5.7c2.3-2.3,2.3-6.1,0-8.5L93.4,79.35
		c5.399-8.1,8.6-17.8,8.6-28.3c0-28.1-22.9-51-51-51c-28.1,0-51,22.9-51,51C0,79.149,22.8,102.05,51,102.05z M51,20.05
		c17.1,0,31,13.9,31,31c0,17.1-13.9,31-31,31c-17.1,0-31-13.9-31-31C20,33.95,33.9,20.05,51,20.05z"/>
</g>
<g>
</g>
<g>
</g>
<g>
</g>
<g>
</g>
<g>
</g>
<g>
</g>
<g>
</g>
<g>
</g>
<g>
</g>
<g>
</g>
<g>
</g>
<g>
</g>
<g>
</g>
<g>
</g>
<g>
</g>
</svg>
