<?xml version="1.0" encoding="utf-8"?><svg version="1.1" id="Layer_1" xmlns="http://www.w3.org/2000/svg" xmlns:xlink="http://www.w3.org/1999/xlink" x="0px" y="0px" viewBox="0 0 122.88 115.71" style="enable-background:new 0 0 122.88 115.71" xml:space="preserve"><style type="text/css">.st0{fill-rule:evenodd;clip-rule:evenodd;}</style><g><path class="st0" fill="#888" d="M116.56,3.69l-3.84,53.76l-17.69-15c-19.5,8.72-29.96,23.99-30.51,43.77c-17.95-26.98-7.46-50.4,12.46-65.97 L64.96,3L116.56,3.69L116.56,3.69z M28.3,0h14.56v19.67H32.67c-4.17,0-7.96,1.71-10.72,4.47c-2.75,2.75-4.46,6.55-4.46,10.72 l-0.03,46c0.03,4.16,1.75,7.95,4.5,10.71c2.76,2.76,6.56,4.48,10.71,4.48h58.02c4.15,0,7.95-1.72,10.71-4.48 c2.76-2.76,4.48-6.55,4.48-10.71v-6.96h17.01v11.33c0,7.77-3.2,17.04-8.32,22.16c-5.12,5.12-12.21,8.32-19.98,8.32H28.3 c-7.77,0-14.86-3.2-19.98-8.32C3.19,102.26,0,95.18,0,87.41l0.03-59.1C0,20.52,3.19,13.43,8.31,8.31C13.43,3.19,20.51,0,28.3,0 L28.3,0z"/></g></svg>