<?xml version="1.0" encoding="iso-8859-1"?>
<!-- Uploaded to: SVG Repo, www.svgrepo.com, Generator: SVG Repo Mixer Tools -->
<!DOCTYPE svg PUBLIC "-//W3C//DTD SVG 1.1//EN" "http://www.w3.org/Graphics/SVG/1.1/DTD/svg11.dtd">
<svg fill="#888" version="1.1" id="Capa_1" xmlns="http://www.w3.org/2000/svg" xmlns:xlink="http://www.w3.org/1999/xlink"
	 width="800px" height="800px" viewBox="0 0 561.406 561.406"
	 xml:space="preserve">
<g>
	<g>
		<path d="M357.494,32.84c-8.807,0-16.426,3.219-22.854,9.645L165.54,150.711H32.503c-8.807,0-16.426,3.219-22.852,9.645
			C3.213,166.788,0,174.408,0,183.208v194.995c0,8.807,3.213,16.426,9.651,22.852c6.426,6.434,14.039,9.646,22.852,9.646h133.042
			L334.641,518.92c6.428,6.434,14.041,9.646,22.854,9.646c8.801,0,16.414-3.213,22.846-9.646c6.426-6.426,9.65-14.045,9.65-22.852
			V65.343c0-8.8-3.219-16.414-9.65-22.852C373.908,36.065,366.289,32.84,357.494,32.84z"/>
		<path d="M482.703,161.372c-3.391-1.689-7.619-2.54-12.693-2.54c-8.807,0-16.426,3.133-22.852,9.394
			c-6.432,6.267-9.645,13.966-9.645,23.109c0,7.111,2.031,13.121,6.088,18.023c4.064,4.914,8.967,9.137,14.725,12.693
			c5.754,3.556,11.506,7.448,17.266,11.677c5.752,4.235,10.666,10.245,14.725,18.03c4.062,7.791,6.096,17.436,6.096,28.941
			c0,11.511-2.033,21.164-6.096,28.947c-4.064,7.791-8.973,13.801-14.725,18.023c-5.76,4.236-11.512,8.129-17.266,11.684
			c-5.758,3.557-10.66,7.791-14.725,12.693c-4.062,4.914-6.088,10.918-6.088,18.023c0,9.143,3.213,16.848,9.645,23.109
			c6.426,6.266,14.045,9.395,22.852,9.395c5.08,0,9.309-0.84,12.693-2.541c23.695-9.473,42.736-25.299,57.123-47.479
			c14.389-22.166,21.58-46.121,21.58-71.855c0-25.722-7.197-49.762-21.58-72.106C525.432,186.256,506.393,170.509,482.703,161.372z"
			/>
	</g>
</g>
</svg>