<?xml version="1.0" encoding="iso-8859-1"?>
<!-- Uploaded to: SVG Repo, www.svgrepo.com, Generator: SVG Repo Mixer Tools -->
<svg version="1.1" id="Layer_1" xmlns="http://www.w3.org/2000/svg" xmlns:xlink="http://www.w3.org/1999/xlink" 
	 viewBox="0 0 361.465 361.465" xml:space="preserve">
<g id="XMLID_2136_">
	<g id="XMLID_2137_">
		<path id="XMLID_2138_" style="fill:#1F2C47;" d="M293.341,235.602H68.133l-0.139-10.276c-0.006-0.381-0.012-0.762-0.012-1.145
			c0-62.171,50.58-112.75,112.75-112.75c62.171,0,112.75,50.579,112.75,112.75c0,0.373-0.006,0.744-0.012,1.115L293.341,235.602z
			 M88.375,215.602h184.713c-4.345-47.134-44.107-84.171-92.356-84.171S92.72,168.468,88.375,215.602z"/>
	</g>
	<g id="XMLID_2141_">
		<g id="XMLID_2142_">
			<rect id="XMLID_2143_" x="211.021" y="78.815" style="fill:#1F2C47;" width="20" height="53.223"/>
		</g>
		<g id="XMLID_2144_">
			<rect id="XMLID_2145_" x="130.441" y="78.815" style="fill:#1F2C47;" width="20" height="53.223"/>
		</g>
	</g>
	<g id="XMLID_2146_">
		<path id="XMLID_2147_" style="fill:#1F2C47;" d="M249.074,88.815H112.389c-15,0-27.204-12.203-27.204-27.203V27.204
			C85.186,12.204,97.389,0,112.389,0h136.684c15,0,27.204,12.204,27.204,27.204v34.408
			C276.278,76.612,264.073,88.815,249.074,88.815z M112.389,20c-3.972,0-7.204,3.231-7.204,7.204v34.408
			c0,3.972,3.231,7.203,7.204,7.203h136.684c3.973,0,7.204-3.231,7.204-7.203V27.204c0-3.973-3.231-7.204-7.204-7.204H112.389z"/>
	</g>
	<g id="XMLID_2150_">
		<path id="XMLID_35_" style="fill:#00969B;" d="M207.09,225.601l-23.663,123.416c-0.503,3.263-5.204,3.263-5.707,0l-23.663-123.416
			H207.09z"/>
		<path id="XMLID_2151_" style="fill:#1F2C47;" d="M180.574,361.465c-6.323,0-11.625-4.478-12.697-10.683l-25.918-135.181h77.231
			l-25.919,135.181C192.197,356.987,186.896,361.465,180.574,361.465z M166.158,235.602l14.417,75.191l14.417-75.191
			L166.158,235.602L166.158,235.602z"/>
	</g>
</g>
</svg>